<svg width="472" height="100" viewBox="0 0 472 100" fill="none" xmlns="http://www.w3.org/2000/svg">
<rect x="100" y="6.10352e-05" width="100" height="100" rx="20" transform="rotate(90 100 6.10352e-05)" fill="#161F34"/>
<path d="M32.1494 67.8579H45.2266C45.2246 75.0778 39.3716 80.93 32.1514 80.9302C24.9301 80.9301 19.0756 75.0762 19.0752 67.855C19.0752 60.6341 24.9288 54.78 32.1494 54.7788V67.8579ZM67.8691 54.7788C75.0906 54.779 80.9443 60.6335 80.9443 67.855C80.944 75.0762 75.0904 80.93 67.8691 80.9302C60.6488 80.9301 54.7949 75.0778 54.793 67.8579H67.8594V54.7788C67.8626 54.7788 67.8659 54.7788 67.8691 54.7788ZM67.8691 19.0757C75.0906 19.0759 80.9443 24.9304 80.9443 32.1519C80.944 39.3731 75.0904 45.2269 67.8691 45.2271C67.8659 45.2271 67.8626 45.2261 67.8594 45.2261V32.1479H54.793C54.795 24.9281 60.6489 19.0758 67.8691 19.0757ZM32.1514 19.0757C39.3716 19.0759 45.2246 24.9281 45.2266 32.1479H32.1494V45.2261C24.929 45.2249 19.0755 39.3725 19.0752 32.1519C19.0752 24.9303 24.9299 19.0758 32.1514 19.0757Z" fill="#7FC8FF"/>
<path d="M142.427 70.248V65.748H153.227V32.748H142.427V28.248H158.147V65.748H168.947V70.248H142.427ZM189.174 70.608C182.454 70.608 177.894 67.248 177.894 61.668C177.894 55.548 182.154 52.128 190.194 52.128H199.194V50.028C199.194 46.068 196.374 43.668 191.574 43.668C187.254 43.668 184.374 45.708 183.774 48.828H178.854C179.574 42.828 184.434 39.288 191.814 39.288C199.614 39.288 204.114 43.188 204.114 50.328V63.708C204.114 65.328 204.714 65.748 206.094 65.748H207.654V70.248H204.954C200.874 70.248 199.494 68.508 199.434 65.508C197.514 68.268 194.454 70.608 189.174 70.608ZM189.534 66.408C195.654 66.408 199.194 62.868 199.194 57.768V56.268H189.714C185.334 56.268 182.874 57.888 182.874 61.368C182.874 64.368 185.454 66.408 189.534 66.408ZM216.601 70.248V39.648H220.861L221.521 43.788C223.321 41.448 226.321 39.288 231.121 39.288C237.601 39.288 243.001 42.948 243.001 52.848V70.248H238.081V53.148C238.081 47.028 235.201 43.788 230.281 43.788C224.941 43.788 221.521 47.928 221.521 53.988V70.248H216.601ZM266.348 82.608C258.548 82.608 253.088 78.948 252.308 72.228H257.348C258.188 76.068 261.608 78.228 266.708 78.228C273.128 78.228 276.608 75.228 276.608 68.568V64.968C274.568 68.448 271.268 70.608 266.108 70.608C257.648 70.608 251.408 64.908 251.408 54.948C251.408 45.588 257.648 39.288 266.108 39.288C271.268 39.288 274.688 41.508 276.608 44.928L277.268 39.648H281.528V68.748C281.528 77.568 276.848 82.608 266.348 82.608ZM266.588 66.228C272.588 66.228 276.668 61.608 276.668 55.068C276.668 48.348 272.588 43.668 266.588 43.668C260.528 43.668 256.448 48.288 256.448 54.948C256.448 61.608 260.528 66.228 266.588 66.228ZM303.555 82.608C295.755 82.608 290.295 78.948 289.515 72.228H294.555C295.395 76.068 298.815 78.228 303.915 78.228C310.335 78.228 313.815 75.228 313.815 68.568V64.968C311.775 68.448 308.475 70.608 303.315 70.608C294.855 70.608 288.615 64.908 288.615 54.948C288.615 45.588 294.855 39.288 303.315 39.288C308.475 39.288 311.895 41.508 313.815 44.928L314.475 39.648H318.735V68.748C318.735 77.568 314.055 82.608 303.555 82.608ZM303.795 66.228C309.795 66.228 313.875 61.608 313.875 55.068C313.875 48.348 309.795 43.668 303.795 43.668C297.735 43.668 293.655 48.288 293.655 54.948C293.655 61.608 297.735 66.228 303.795 66.228ZM327.862 70.248V65.748H335.422V44.148H327.862V39.648H340.222V44.928C341.602 42.588 344.482 39.648 350.482 39.648H355.582V44.448H349.942C342.562 44.448 340.342 49.968 340.342 54.828V65.748H353.902V70.248H327.862ZM375.209 70.608C368.489 70.608 363.929 67.248 363.929 61.668C363.929 55.548 368.189 52.128 376.229 52.128H385.229V50.028C385.229 46.068 382.409 43.668 377.609 43.668C373.289 43.668 370.409 45.708 369.809 48.828H364.889C365.609 42.828 370.469 39.288 377.849 39.288C385.649 39.288 390.149 43.188 390.149 50.328V63.708C390.149 65.328 390.749 65.748 392.129 65.748H393.689V70.248H390.989C386.909 70.248 385.529 68.508 385.469 65.508C383.549 68.268 380.489 70.608 375.209 70.608ZM375.569 66.408C381.689 66.408 385.229 62.868 385.229 57.768V56.268H375.749C371.369 56.268 368.909 57.888 368.909 61.368C368.909 64.368 371.489 66.408 375.569 66.408ZM401.076 82.248V39.648H405.336L405.996 44.568C408.036 41.748 411.336 39.288 416.496 39.288C424.956 39.288 431.196 44.988 431.196 54.948C431.196 64.308 424.956 70.608 416.496 70.608C411.336 70.608 407.856 68.508 405.996 65.568V82.248H401.076ZM416.016 66.228C422.076 66.228 426.156 61.608 426.156 54.948C426.156 48.288 422.076 43.668 416.016 43.668C410.016 43.668 405.936 48.288 405.936 54.828C405.936 61.548 410.016 66.228 416.016 66.228ZM439.663 70.248V28.248H444.583V43.788C446.863 40.968 450.403 39.288 454.363 39.288C462.043 39.288 466.423 44.388 466.423 53.208V70.248H461.503V53.508C461.503 47.268 458.623 43.788 453.523 43.788C448.063 43.788 444.583 48.108 444.583 54.948V70.248H439.663Z" fill="white"/>
</svg>
