<svg width="1622" height="251" viewBox="0 0 1622 251" fill="none" xmlns="http://www.w3.org/2000/svg">
<path fill-rule="evenodd" clip-rule="evenodd" d="M124.272 0.412354H363.303C431.414 0.412354 486.823 56.0155 486.823 124.36C486.823 192.705 431.414 248.308 363.303 248.308H124.272C56.1612 248.308 0.75293 192.705 0.75293 124.36C0.75293 56.0155 56.1612 0.412354 124.272 0.412354ZM234.017 192.549C237.018 195.705 241.46 195.549 245.395 194.731L245.434 194.751C247.261 193.265 244.664 191.383 242.185 189.586C240.698 188.509 239.253 187.461 238.829 186.548C240.202 184.874 236.142 181.074 232.982 178.115C231.655 176.873 230.487 175.78 229.945 175.054C227.697 172.606 226.793 169.517 225.883 166.41C225.28 164.349 224.675 162.279 223.672 160.383C217.496 146.044 210.424 131.822 200.507 119.684C194.134 111.617 186.861 104.393 179.585 97.1659C174.894 92.5071 170.203 87.8472 165.75 82.9599C161.169 78.2302 158.412 72.4039 155.65 66.5679C153.338 61.6821 151.023 56.7896 147.632 52.5281C137.364 37.3318 104.946 33.182 100.192 54.6517C100.211 55.3141 99.9969 55.7428 99.4125 56.1714C96.7823 58.1001 94.4444 60.2822 92.4767 62.9318C87.6645 69.6533 86.9241 81.0506 92.9247 87.0901C92.9334 86.9606 92.9419 86.8314 92.9504 86.7026C93.1509 83.653 93.3384 80.8023 95.7497 78.6153C100.387 82.6092 107.42 84.0314 112.797 81.0506C119.28 90.3505 121.345 101.593 123.418 112.873C125.144 122.271 126.875 131.694 131.169 140.044C131.258 140.191 131.346 140.339 131.435 140.487C133.959 144.689 136.524 148.959 139.761 152.629C140.937 154.452 143.351 156.42 145.761 158.384C148.941 160.975 152.114 163.561 152.424 165.8C152.439 166.774 152.434 167.761 152.43 168.754C152.405 174.633 152.379 180.721 156.146 185.555C158.23 189.783 153.126 194.03 149.015 193.504C146.761 193.816 144.299 193.222 141.854 192.633C138.508 191.826 135.195 191.026 132.494 192.569C131.736 193.389 130.648 193.418 129.554 193.446C128.257 193.481 126.953 193.515 126.181 194.868C126.023 195.27 125.653 195.724 125.268 196.196C124.422 197.232 123.506 198.355 124.603 199.212C124.702 199.138 124.8 199.063 124.897 198.988C126.56 197.719 128.145 196.509 130.39 197.264C130.091 198.922 131.162 199.367 132.233 199.811C132.419 199.888 132.606 199.966 132.786 200.05C132.775 200.435 132.699 200.824 132.623 201.209C132.443 202.13 132.267 203.033 132.981 203.829C133.32 203.485 133.62 203.097 133.92 202.709C134.655 201.759 135.394 200.805 136.722 200.459C139.642 204.359 142.584 202.739 146.276 200.707C150.44 198.414 155.557 195.596 162.672 199.582C159.945 199.446 157.509 199.777 155.678 202.037C155.23 202.544 154.84 203.128 155.639 203.791C159.849 201.063 161.6 202.043 163.249 202.966C164.439 203.632 165.575 204.268 167.543 203.459C168.008 203.217 168.473 202.966 168.939 202.714C172.1 201.009 175.305 199.28 179.057 199.875C176.254 200.683 175.257 202.459 174.169 204.399C173.63 205.358 173.07 206.356 172.258 207.297C171.829 207.726 171.634 208.233 172.121 208.953C177.99 208.465 180.208 206.977 183.204 204.967C184.633 204.008 186.24 202.929 188.506 201.784C191.011 200.242 193.515 201.228 195.942 202.184C198.575 203.221 201.117 204.221 203.469 201.92C204.212 201.22 205.143 201.212 206.071 201.203C206.409 201.2 206.746 201.197 207.073 201.16C206.341 197.24 202.212 197.286 198.021 197.333C193.174 197.387 188.243 197.442 188.389 191.361C192.893 188.285 192.935 182.946 192.974 177.9C192.984 176.682 192.993 175.481 193.065 174.333C196.378 176.18 199.882 177.624 203.364 179.058C206.64 180.408 209.897 181.75 212.957 183.412C216.152 188.555 221.139 195.374 227.783 194.926C227.958 194.4 228.114 193.952 228.309 193.426C228.692 193.493 229.096 193.595 229.508 193.699C231.251 194.141 233.119 194.614 234.017 192.549ZM364.23 134.099C368.077 137.937 373.294 140.093 378.734 140.093C384.174 140.093 389.392 137.937 393.239 134.099C397.085 130.262 399.246 125.057 399.246 119.63C399.246 114.203 397.085 108.998 393.239 105.161C389.392 101.323 384.174 99.1671 378.734 99.1671C376.187 99.1671 373.688 99.6398 371.357 100.537L359.6 83.3752L351.406 88.9887L363.224 106.239C360.008 109.945 358.222 114.696 358.222 119.63C358.222 125.057 360.383 130.262 364.23 134.099ZM327.422 78.5228C330.3 79.945 333.473 80.673 336.684 80.6483C341.067 80.6146 345.323 79.1815 348.83 76.5591C352.336 73.9367 354.909 70.2628 356.17 66.0759C357.432 61.889 357.316 57.409 355.839 53.2926C354.363 49.1762 351.604 45.6397 347.966 43.2014C345.3 41.4144 342.251 40.2769 339.063 39.8805C335.876 39.4842 332.64 39.84 329.616 40.9195C326.592 41.9989 323.864 43.7717 321.652 46.0952C319.44 48.4186 317.806 51.2278 316.882 54.2964C315.957 57.365 315.768 60.6073 316.33 63.7622C316.891 66.9171 318.187 69.8964 320.114 72.4602C322.04 75.024 324.543 77.1006 327.422 78.5228ZM327.422 197.347C330.3 198.769 333.473 199.497 336.684 199.472C341.067 199.438 345.323 198.005 348.83 195.383C352.336 192.761 354.909 189.087 356.17 184.9C357.432 180.713 357.316 176.233 355.839 172.117C354.363 168 351.604 164.464 347.966 162.025C345.3 160.238 342.251 159.101 339.063 158.704C335.876 158.308 332.64 158.664 329.616 159.743C326.592 160.823 323.864 162.596 321.652 164.919C319.44 167.243 317.806 170.052 316.882 173.12C315.957 176.189 315.768 179.431 316.33 182.586C316.891 185.741 318.187 188.72 320.114 191.284C322.04 193.848 324.543 195.924 327.422 197.347ZM346.279 124.718V114.544H314.885C314.095 111.46 312.589 108.602 310.487 106.202L322.299 88.7037L313.709 83.0066L301.897 100.505C299.733 99.7228 297.451 99.3101 295.148 99.2841C289.724 99.2841 284.522 101.428 280.686 105.243C276.85 109.059 274.696 114.235 274.696 119.631C274.696 125.027 276.85 130.202 280.686 134.018C284.522 137.834 289.724 139.978 295.148 139.978C297.451 139.952 299.733 139.539 301.897 138.757L313.709 156.255L322.196 150.558L310.487 133.06C312.589 130.659 314.095 127.802 314.885 124.718H346.279Z" fill="#1C3C3C"/>
<path d="M1162.91 59.8536C1152.25 51.3787 1137.56 47.0925 1119.24 47.0925C1106.04 47.0925 1094.02 50.2097 1083.51 56.3467C1073.01 62.4837 1064.62 71.4457 1058.58 82.9599C1052.52 94.4935 1049.46 108.579 1049.46 124.847C1049.46 137.258 1051.27 148.421 1054.86 158.026C1058.42 167.611 1063.47 175.814 1069.82 182.418C1076.17 189.003 1083.65 194.069 1092.07 197.478C1100.48 200.888 1109.64 202.602 1119.26 202.602C1133.64 202.602 1146.15 199.465 1156.46 193.289C1166.76 187.114 1174.77 178.463 1180.3 167.573C1185.84 156.662 1188.64 144.018 1188.64 129.971C1188.64 129.562 1188.6 128.276 1188.54 126.114C1188.49 124.38 1188.41 122.958 1188.31 121.905H1136.33V140.219H1163.02L1162.91 141.057C1161.64 149.766 1159.15 157.13 1155.48 162.955C1151.8 168.8 1146.97 173.222 1141.16 176.086C1135.36 178.95 1128.46 180.373 1120.84 180.295C1110.63 180.158 1101.98 177.762 1095.16 173.164C1088.35 168.566 1083.16 162.078 1079.77 153.837C1076.4 145.655 1074.69 135.894 1074.69 124.828C1074.69 113.762 1076.42 103.943 1079.81 95.6625C1083.24 87.3435 1088.4 80.7778 1095.2 76.18C1102 71.5821 1110.65 69.3221 1120.84 69.4585C1131.01 69.4585 1139.51 72.2055 1146.09 77.6217C1152.52 82.9014 1157.24 90.0126 1160.16 98.7602L1184.49 94.9027C1180.65 79.9596 1173.41 68.1531 1162.91 59.8146V59.8536Z" fill="#1C3C3C"/>
<path d="M1478.8 91.8245C1470.94 86.6227 1461.69 84.0315 1451.01 84.0315C1440.34 84.0315 1431.26 86.6227 1423.97 91.8245C1422.47 92.896 1421.09 94.0455 1419.74 95.2729V87.1682H1397.46V250.412H1422.88V194.439C1423.33 194.79 1423.78 195.14 1424.24 195.472C1431.71 200.712 1440.94 203.323 1451.97 203.323C1462.35 203.323 1471.43 200.712 1479.17 195.472C1486.9 190.231 1492.9 183.12 1497.17 174.119C1501.41 165.118 1503.56 154.967 1503.56 143.668C1503.56 132.368 1501.39 122.022 1497.07 113.06C1492.74 104.098 1486.67 97.0263 1478.81 91.8245H1478.8ZM1473.77 162.468C1471.7 168.079 1468.55 172.541 1464.3 175.814C1460.05 179.087 1454.64 180.723 1448.07 180.723C1441.51 180.723 1435.84 179.165 1431.69 176.067C1427.54 172.969 1424.5 168.625 1422.59 163.033C1420.66 157.461 1419.7 150.993 1419.7 143.668C1419.7 136.342 1420.66 129.796 1422.59 124.263C1424.5 118.71 1427.5 114.385 1431.53 111.288C1435.58 108.19 1440.8 106.631 1447.23 106.631C1453.99 106.631 1459.59 108.287 1463.97 111.599C1468.37 114.911 1471.61 119.373 1473.71 125.003C1475.79 130.614 1476.85 136.849 1476.85 143.687C1476.85 150.525 1475.81 156.857 1473.77 162.468Z" fill="#1C3C3C"/>
<path d="M1620.55 126.464C1620.1 122.1 1619.11 117.483 1617.57 112.593C1616.03 107.703 1613.65 103.105 1610.46 98.7798C1607.24 94.4547 1602.92 90.8894 1597.48 88.1034C1592.05 85.3174 1585.13 83.9146 1576.77 83.9146C1566.17 83.9146 1557.23 86.2331 1549.98 90.8699C1546.09 93.3637 1542.72 96.325 1539.83 99.7345V49.489H1517.33V200.167H1542.87V142.089C1542.87 135.193 1543.63 129.523 1545.17 125.081C1546.71 120.659 1548.74 117.171 1551.29 114.619C1553.84 112.067 1556.69 110.274 1559.82 109.222C1562.96 108.17 1566.14 107.644 1569.35 107.644C1575.35 107.644 1580.1 108.93 1583.63 111.521C1587.16 114.113 1589.81 117.405 1591.58 121.419C1593.35 125.432 1594.48 129.601 1594.99 133.926C1595.48 138.251 1595.73 142.187 1595.73 145.752V200.167H1621.27V137.063C1621.27 134.335 1621.04 130.809 1620.59 126.445L1620.55 126.464Z" fill="#1C3C3C"/>
<path d="M1263.38 88.1619C1259.91 88.3957 1256.5 89.0581 1253.21 90.1102C1249.91 91.1622 1246.89 92.6234 1244.19 94.4353C1240.99 96.403 1238.24 98.9163 1235.98 101.917C1234.99 103.241 1234.08 104.664 1233.18 106.242L1232.24 107.898V88.6295H1211.22V199.251H1235.24V143.005C1235.24 138.719 1235.77 134.647 1236.8 130.926C1237.85 127.205 1239.49 123.815 1241.69 120.893C1243.89 117.951 1246.78 115.515 1250.28 113.626C1253.75 111.541 1257.75 110.294 1262.11 109.943C1266.18 109.612 1269.86 109.885 1273.08 110.723V88.5515C1269.94 88.0645 1266.69 87.9281 1263.38 88.1619Z" fill="#1C3C3C"/>
<path d="M586.008 49.2163V199.563H689.558V176.846H609.524V49.2163H586.008Z" fill="#1C3C3C"/>
<path d="M744.771 84.8886C722.211 84.8886 705.319 95.4676 698.461 113.918C698.013 115.106 696.708 118.652 696.708 118.652L716.054 131.16L718.684 124.302C723.165 112.612 731.465 107.177 744.771 107.177C758.078 107.177 765.696 113.625 765.559 126.347C765.559 126.874 765.52 128.432 765.52 128.432C765.52 128.432 747.908 131.296 740.661 132.816C709.703 139.362 696.728 151.168 696.728 170.514C696.728 180.821 702.455 191.965 712.898 198.219C719.171 201.979 727.354 203.381 736.374 203.381C742.317 203.381 748.083 202.505 753.441 200.868C765.598 196.835 768.969 188.906 768.969 188.906V199.271H789.094V125.12C789.094 99.9097 772.534 84.8691 744.791 84.8691L744.771 84.8886ZM765.618 164.027C765.618 171.82 757.123 182.788 737.349 182.788C731.777 182.788 727.802 181.308 725.172 179.106C721.646 176.164 720.477 171.917 720.964 168.196C721.178 166.579 722.152 163.072 725.795 160.033C729.517 156.916 736.082 154.714 746.233 152.493C754.591 150.681 765.618 148.674 765.618 148.674V164.027Z" fill="#1C3C3C"/>
<path d="M1333.81 84.8886C1311.25 84.8886 1294.35 95.4676 1287.5 113.918C1287.05 115.106 1285.74 118.652 1285.74 118.652L1305.09 131.16L1307.72 124.302C1312.2 112.612 1320.5 107.177 1333.81 107.177C1347.11 107.177 1354.73 113.625 1354.59 126.347C1354.59 126.874 1354.56 128.432 1354.56 128.432C1354.56 128.432 1336.94 131.296 1329.7 132.816C1298.74 139.362 1285.76 151.168 1285.76 170.514C1285.76 180.821 1291.49 191.965 1301.93 198.219C1308.21 201.979 1316.39 203.381 1325.41 203.381C1331.35 203.381 1337.12 202.505 1342.48 200.868C1354.63 196.835 1358 188.906 1358 188.906V199.271H1378.13V125.12C1378.13 99.9097 1361.57 84.8691 1333.83 84.8691L1333.81 84.8886ZM1354.65 164.027C1354.65 171.82 1346.16 182.788 1326.38 182.788C1320.81 182.788 1316.84 181.308 1314.21 179.106C1310.68 176.164 1309.51 171.917 1310 168.196C1310.21 166.579 1311.19 163.072 1314.83 160.033C1318.55 156.916 1325.12 154.714 1335.27 152.493C1343.63 150.681 1354.65 148.674 1354.65 148.674V164.027Z" fill="#1C3C3C"/>
<path d="M863.439 84.8886C860.634 84.8886 857.906 85.0835 855.276 85.4536C837.255 88.1617 831.975 97.3185 831.975 97.3185V88.1617H809.434V199.329H832.949V137.667C832.949 116.723 848.223 107.177 862.426 107.177C877.778 107.177 885.24 115.437 885.24 132.407V199.31H908.756V129.172C908.756 101.838 891.397 84.8691 863.439 84.8691V84.8886Z" fill="#1C3C3C"/>
<path d="M1006.87 88.0838V99.5395C1006.87 99.5395 1001.1 84.8887 974.899 84.8887C942.344 84.8887 922.102 107.372 922.102 143.531C922.102 163.949 928.628 180.022 940.142 190.172C949.085 198.063 961.047 202.115 975.308 202.388C985.205 202.583 991.635 199.875 995.629 197.322C1003.32 192.432 1006.17 187.776 1006.17 187.776C1006.17 187.776 1005.84 191.419 1005.25 196.348C1004.82 199.914 1004.03 202.427 1004.03 202.427C1000.44 215.168 989.979 222.533 974.704 222.533C959.43 222.533 950.176 217.506 948.344 207.609L925.492 214.428C929.446 233.462 947.312 244.84 973.282 244.84C990.933 244.84 1004.79 240.048 1014.43 230.56C1024.15 221.013 1029.1 207.239 1029.1 189.627V88.0838H1006.87ZM1005.39 144.564C1005.39 166.813 994.518 180.1 976.321 180.1C956.819 180.1 945.636 166.774 945.636 143.551C945.636 120.327 956.819 107.196 976.321 107.196C994.09 107.196 1005.23 120.425 1005.39 141.719V144.544V144.564Z" fill="#1C3C3C"/>
</svg>
