<svg width="1622" height="251" viewBox="0 0 1622 251" fill="none" xmlns="http://www.w3.org/2000/svg">
<path fill-rule="evenodd" clip-rule="evenodd" d="M124.272 0.695801H363.303C431.414 0.695801 486.823 56.299 486.823 124.644C486.823 192.988 431.414 248.592 363.303 248.592H124.272C56.1612 248.592 0.75293 192.988 0.75293 124.644C0.75293 56.299 56.1612 0.695801 124.272 0.695801ZM234.017 192.833C237.018 195.989 241.46 195.833 245.395 195.015L245.434 195.034C247.261 193.548 244.664 191.667 242.185 189.87C240.698 188.792 239.253 187.745 238.829 186.832C240.202 185.158 236.142 181.358 232.982 178.399C231.655 177.157 230.487 176.063 229.945 175.337C227.697 172.889 226.793 169.801 225.883 166.694C225.28 164.632 224.675 162.563 223.672 160.667C217.496 146.328 210.424 132.105 200.507 119.968C194.134 111.901 186.861 104.676 179.585 97.4494C174.894 92.7906 170.203 88.1307 165.75 83.2433C161.169 78.5137 158.412 72.6873 155.65 66.8513C153.338 61.9655 151.023 57.073 147.632 52.8116C137.364 37.6152 104.946 33.4654 100.192 54.9352C100.211 55.5976 99.9969 56.0262 99.4125 56.4548C96.7823 58.3836 94.4444 60.5656 92.4767 63.2153C87.6645 69.9367 86.9241 81.334 92.9247 87.3736C92.9334 87.2441 92.9419 87.1149 92.9504 86.986C93.1509 83.9364 93.3384 81.0858 95.7497 78.8987C100.387 82.8926 107.42 84.3148 112.797 81.334C119.28 90.6339 121.345 101.876 123.418 113.157C125.144 122.554 126.875 131.978 131.169 140.327C131.258 140.475 131.346 140.622 131.435 140.77C133.959 144.973 136.524 149.243 139.761 152.913C140.937 154.735 143.351 156.703 145.761 158.667C148.941 161.259 152.114 163.844 152.424 166.083C152.439 167.057 152.434 168.044 152.43 169.037C152.405 174.916 152.379 181.005 156.146 185.838C158.23 190.066 153.126 194.313 149.015 193.787C146.761 194.1 144.299 193.506 141.854 192.916C138.508 192.109 135.195 191.31 132.494 192.852C131.736 193.672 130.648 193.701 129.554 193.73C128.257 193.764 126.953 193.798 126.181 195.151C126.023 195.553 125.653 196.007 125.268 196.479C124.422 197.516 123.506 198.639 124.603 199.496C124.702 199.421 124.8 199.346 124.897 199.272C126.56 198.002 128.145 196.793 130.39 197.547C130.091 199.206 131.162 199.65 132.233 200.094C132.419 200.172 132.606 200.249 132.786 200.333C132.775 200.718 132.699 201.107 132.623 201.492C132.443 202.413 132.267 203.316 132.981 204.113C133.32 203.768 133.62 203.381 133.92 202.993C134.655 202.043 135.394 201.088 136.722 200.742C139.642 204.643 142.584 203.023 146.276 200.99C150.44 198.697 155.557 195.88 162.672 199.866C159.945 199.729 157.509 200.061 155.678 202.321C155.23 202.827 154.84 203.412 155.639 204.074C159.849 201.347 161.6 202.327 163.249 203.249C164.439 203.915 165.575 204.551 167.543 203.743C168.008 203.5 168.473 203.249 168.939 202.998C172.1 201.293 175.305 199.564 179.057 200.158C176.254 200.966 175.257 202.743 174.169 204.682C173.63 205.641 173.07 206.64 172.258 207.581C171.829 208.009 171.634 208.516 172.121 209.237C177.99 208.749 180.208 207.261 183.204 205.25C184.633 204.291 186.24 203.213 188.506 202.067C191.011 200.525 193.515 201.512 195.942 202.467C198.575 203.504 201.117 204.505 203.469 202.204C204.212 201.504 205.143 201.495 206.071 201.486C206.409 201.483 206.746 201.48 207.073 201.444C206.341 197.523 202.212 197.569 198.021 197.616C193.174 197.67 188.243 197.725 188.389 191.644C192.893 188.568 192.935 183.229 192.974 178.184C192.984 176.965 192.993 175.764 193.065 174.616C196.378 176.464 199.882 177.907 203.364 179.342C206.64 180.692 209.897 182.033 212.957 183.695C216.152 188.839 221.139 195.658 227.783 195.209C227.958 194.683 228.114 194.235 228.309 193.709C228.692 193.776 229.096 193.879 229.508 193.983C231.251 194.424 233.119 194.898 234.017 192.833ZM364.23 134.383C368.077 138.22 373.294 140.376 378.734 140.376C384.175 140.376 389.392 138.22 393.239 134.383C397.086 130.545 399.247 125.34 399.247 119.913C399.247 114.486 397.086 109.281 393.239 105.444C389.392 101.606 384.175 99.4505 378.734 99.4505C376.187 99.4505 373.689 99.9232 371.357 100.82L359.6 83.6586L351.406 89.2721L363.224 106.523C360.009 110.229 358.222 114.979 358.222 119.913C358.222 125.34 360.383 130.545 364.23 134.383ZM327.422 78.8062C330.3 80.2284 333.473 80.9565 336.685 80.9317C341.067 80.898 345.323 79.4649 348.83 76.8425C352.336 74.2201 354.909 70.5463 356.17 66.3593C357.432 62.1724 357.316 57.6925 355.839 53.576C354.363 49.4596 351.604 45.9232 347.966 43.4848C345.3 41.6978 342.251 40.5603 339.064 40.1639C335.876 39.7676 332.64 40.1234 329.616 41.2029C326.592 42.2823 323.864 44.0551 321.652 46.3786C319.441 48.702 317.807 51.5112 316.882 54.5798C315.958 57.6484 315.768 60.8907 316.33 64.0456C316.891 67.2005 318.187 70.1798 320.114 72.7436C322.04 75.3074 324.544 77.384 327.422 78.8062ZM327.422 197.63C330.3 199.052 333.473 199.78 336.685 199.756C341.067 199.722 345.323 198.289 348.83 195.666C352.336 193.044 354.909 189.37 356.17 185.183C357.432 180.996 357.316 176.516 355.839 172.4C354.363 168.284 351.604 164.747 347.966 162.309C345.3 160.522 342.251 159.384 339.064 158.988C335.876 158.591 332.64 158.947 329.616 160.027C326.592 161.106 323.864 162.879 321.652 165.203C319.441 167.526 317.807 170.335 316.882 173.404C315.958 176.472 315.768 179.715 316.33 182.87C316.891 186.024 318.187 189.004 320.114 191.568C322.04 194.131 324.544 196.208 327.422 197.63ZM346.279 125.001V114.828H314.885C314.095 111.743 312.589 108.886 310.488 106.485L322.299 88.9872L313.709 83.29L301.898 100.788C299.733 100.006 297.451 99.5935 295.148 99.5675C289.724 99.5675 284.522 101.711 280.686 105.527C276.851 109.343 274.696 114.518 274.696 119.914C274.696 125.311 276.851 130.486 280.686 134.302C284.522 138.117 289.724 140.261 295.148 140.261C297.451 140.235 299.733 139.822 301.898 139.04L313.709 156.538L322.197 150.841L310.488 133.343C312.589 130.943 314.095 128.086 314.885 125.001H346.279Z" fill="#F8F7FF"/>
<path d="M1162.91 60.137C1152.25 51.6621 1137.56 47.376 1119.24 47.376C1106.04 47.376 1094.02 50.4932 1083.51 56.6302C1073.01 62.7672 1064.62 71.7292 1058.58 83.2433C1052.52 94.777 1049.46 108.863 1049.46 125.131C1049.46 137.541 1051.27 148.705 1054.86 158.31C1058.42 167.895 1063.47 176.097 1069.82 182.702C1076.17 189.287 1083.65 194.352 1092.07 197.762C1100.48 201.171 1109.64 202.886 1119.26 202.886C1133.64 202.886 1146.15 199.749 1156.46 193.573C1166.76 187.397 1174.77 178.747 1180.3 167.856C1185.84 156.946 1188.64 144.302 1188.64 130.255C1188.64 129.846 1188.6 128.56 1188.54 126.397C1188.49 124.663 1188.41 123.241 1188.31 122.189H1136.33V140.502H1163.02L1162.91 141.34C1161.64 150.049 1159.15 157.413 1155.48 163.239C1151.8 169.083 1146.97 173.506 1141.16 176.37C1135.36 179.234 1128.46 180.656 1120.84 180.578C1110.63 180.442 1101.98 178.045 1095.16 173.447C1088.35 168.85 1083.16 162.362 1079.77 154.121C1076.4 145.938 1074.69 136.177 1074.69 125.111C1074.69 114.045 1076.42 104.226 1079.81 95.9459C1083.24 87.6269 1088.4 81.0613 1095.2 76.4634C1102 71.8655 1110.65 69.6056 1120.84 69.7419C1131.01 69.7419 1139.51 72.489 1146.09 77.9051C1152.52 83.1849 1157.24 90.296 1160.16 99.0437L1184.49 95.1861C1180.65 80.243 1173.41 68.4366 1162.91 60.0981V60.137Z" fill="#F8F7FF"/>
<path d="M1478.8 92.108C1470.94 86.9061 1461.69 84.3149 1451.01 84.3149C1440.34 84.3149 1431.26 86.9061 1423.97 92.108C1422.47 93.1795 1421.09 94.329 1419.74 95.5564V87.4516H1397.46V250.696H1422.88V194.722C1423.33 195.073 1423.78 195.424 1424.24 195.755C1431.71 200.996 1440.94 203.606 1451.97 203.606C1462.35 203.606 1471.43 200.996 1479.17 195.755C1486.9 190.514 1492.9 183.403 1497.17 174.402C1501.41 165.401 1503.56 155.251 1503.56 143.951C1503.56 132.651 1501.39 122.306 1497.07 113.344C1492.74 104.382 1486.67 97.3098 1478.81 92.108H1478.8ZM1473.77 162.752C1471.7 168.363 1468.55 172.824 1464.3 176.097C1460.05 179.37 1454.64 181.007 1448.07 181.007C1441.51 181.007 1435.84 179.448 1431.69 176.35C1427.54 173.253 1424.5 168.908 1422.59 163.317C1420.66 157.745 1419.7 151.276 1419.7 143.951C1419.7 136.626 1420.66 130.079 1422.59 124.546C1424.5 118.994 1427.5 114.669 1431.53 111.571C1435.58 108.473 1440.8 106.915 1447.23 106.915C1453.99 106.915 1459.59 108.571 1463.97 111.883C1468.37 115.195 1471.61 119.656 1473.71 125.287C1475.79 130.898 1476.85 137.132 1476.85 143.97C1476.85 150.809 1475.81 157.141 1473.77 162.752Z" fill="#F8F7FF"/>
<path d="M1620.55 126.748C1620.1 122.384 1619.11 117.767 1617.57 112.876C1616.03 107.986 1613.65 103.388 1610.46 99.0632C1607.24 94.7381 1602.92 91.1728 1597.48 88.3868C1592.05 85.6008 1585.13 84.1981 1576.77 84.1981C1566.17 84.1981 1557.23 86.5165 1549.98 91.1533C1546.09 93.6471 1542.72 96.6085 1539.83 100.018V49.7725H1517.33V200.45H1542.87V142.373C1542.87 135.476 1543.63 129.807 1545.17 125.365C1546.71 120.942 1548.74 117.455 1551.29 114.903C1553.84 112.35 1556.69 110.558 1559.82 109.506C1562.96 108.454 1566.14 107.928 1569.35 107.928C1575.35 107.928 1580.1 109.214 1583.63 111.805C1587.16 114.396 1589.81 117.689 1591.58 121.702C1593.35 125.715 1594.48 129.885 1594.99 134.21C1595.48 138.535 1595.73 142.47 1595.73 146.036V200.45H1621.27V137.346C1621.27 134.619 1621.04 131.093 1620.59 126.728L1620.55 126.748Z" fill="#F8F7FF"/>
<path d="M1263.38 88.4453C1259.91 88.6791 1256.5 89.3415 1253.21 90.3936C1249.91 91.4457 1246.89 92.9069 1244.19 94.7187C1240.99 96.6865 1238.24 99.1997 1235.98 102.2C1234.99 103.525 1234.08 104.947 1233.18 106.525L1232.24 108.181V88.9129H1211.22V199.535H1235.24V143.289C1235.24 139.003 1235.77 134.931 1236.8 131.21C1237.85 127.488 1239.49 124.098 1241.69 121.176C1243.89 118.234 1246.78 115.799 1250.28 113.909C1253.75 111.824 1257.75 110.578 1262.11 110.227C1266.18 109.896 1269.86 110.168 1273.08 111.006V88.835C1269.94 88.3479 1266.69 88.2116 1263.38 88.4453Z" fill="#F8F7FF"/>
<path d="M586.008 49.4995V199.846H689.558V177.13H609.524V49.4995H586.008Z" fill="#F8F7FF"/>
<path d="M744.771 85.1721C722.211 85.1721 705.319 95.7511 698.461 114.201C698.013 115.389 696.708 118.935 696.708 118.935L716.054 131.443L718.684 124.585C723.165 112.896 731.465 107.46 744.771 107.46C758.078 107.46 765.696 113.909 765.559 126.631C765.559 127.157 765.52 128.716 765.52 128.716C765.52 128.716 747.908 131.579 740.661 133.099C709.703 139.645 696.728 151.452 696.728 170.798C696.728 181.104 702.455 192.248 712.898 198.502C719.171 202.262 727.354 203.665 736.374 203.665C742.317 203.665 748.083 202.788 753.441 201.152C765.598 197.119 768.969 189.189 768.969 189.189V199.554H789.094V125.404C789.094 100.193 772.534 85.1526 744.791 85.1526L744.771 85.1721ZM765.618 164.31C765.618 172.103 757.123 183.072 737.349 183.072C731.777 183.072 727.802 181.591 725.172 179.39C721.646 176.448 720.477 172.201 720.964 168.479C721.178 166.862 722.152 163.355 725.795 160.316C729.517 157.199 736.082 154.997 746.233 152.776C754.591 150.965 765.618 148.958 765.618 148.958V164.31Z" fill="#F8F7FF"/>
<path d="M1333.81 85.1721C1311.25 85.1721 1294.35 95.7511 1287.5 114.201C1287.05 115.389 1285.74 118.935 1285.74 118.935L1305.09 131.443L1307.72 124.585C1312.2 112.896 1320.5 107.46 1333.81 107.46C1347.11 107.46 1354.73 113.909 1354.59 126.631C1354.59 127.157 1354.56 128.716 1354.56 128.716C1354.56 128.716 1336.94 131.579 1329.7 133.099C1298.74 139.645 1285.76 151.452 1285.76 170.798C1285.76 181.104 1291.49 192.248 1301.93 198.502C1308.21 202.262 1316.39 203.665 1325.41 203.665C1331.35 203.665 1337.12 202.788 1342.48 201.152C1354.63 197.119 1358 189.189 1358 189.189V199.554H1378.13V125.404C1378.13 100.193 1361.57 85.1526 1333.83 85.1526L1333.81 85.1721ZM1354.65 164.31C1354.65 172.103 1346.16 183.072 1326.38 183.072C1320.81 183.072 1316.84 181.591 1314.21 179.39C1310.68 176.448 1309.51 172.201 1310 168.479C1310.21 166.862 1311.19 163.355 1314.83 160.316C1318.55 157.199 1325.12 154.997 1335.27 152.776C1343.63 150.965 1354.65 148.958 1354.65 148.958V164.31Z" fill="#F8F7FF"/>
<path d="M863.439 85.1721C860.634 85.1721 857.906 85.3669 855.276 85.7371C837.255 88.4451 831.975 97.6019 831.975 97.6019V88.4451H809.434V199.612H832.949V137.95C832.949 117.007 848.223 107.46 862.426 107.46C877.778 107.46 885.24 115.721 885.24 132.69V199.593H908.756V129.456C908.756 102.122 891.397 85.1526 863.439 85.1526V85.1721Z" fill="#F8F7FF"/>
<path d="M1006.87 88.3673V99.823C1006.87 99.823 1001.1 85.1721 974.899 85.1721C942.344 85.1721 922.102 107.655 922.102 143.815C922.102 164.232 928.628 180.305 940.142 190.456C949.085 198.346 961.047 202.399 975.308 202.671C985.205 202.866 991.635 200.158 995.629 197.606C1003.32 192.716 1006.17 188.059 1006.17 188.059C1006.17 188.059 1005.84 191.703 1005.25 196.632C1004.82 200.197 1004.03 202.71 1004.03 202.71C1000.44 215.452 989.979 222.816 974.704 222.816C959.43 222.816 950.176 217.79 948.344 207.893L925.492 214.711C929.446 233.746 947.312 245.124 973.282 245.124C990.933 245.124 1004.79 240.331 1014.43 230.843C1024.15 221.297 1029.1 207.522 1029.1 189.91V88.3673H1006.87ZM1005.39 144.847C1005.39 167.096 994.518 180.383 976.321 180.383C956.819 180.383 945.636 167.057 945.636 143.834C945.636 120.611 956.819 107.48 976.321 107.48C994.09 107.48 1005.23 120.708 1005.39 142.003V144.828V144.847Z" fill="#F8F7FF"/>
</svg>
